<svg xmlns="http://www.w3.org/2000/svg" viewBox="0 0 106.984 106.825" version="1.1">
  <g display="inline" fill-opacity="1">
    <path d="M78.176 88.917c-14.616 13.12-29.992 20.541-49.097-.004C18.17 76.375 9.903 62.09 4.534 46.39c8.184-11.534 16.368-22.33 24.552-42.516l49.097.004c6.328 12.853 10.24 23.74 24.545 42.521-6.221 20.062-15 32.449-24.552 42.518z" fill="#fff"/>
    <path d="M75.072 83.69c-12.616 11.325-25.888 17.73-42.378-.003-9.416-10.822-16.552-23.152-21.186-36.703C18.572 37.028 25.636 27.71 32.7 10.286l42.378.003c5.462 11.094 8.84 20.492 21.186 36.703C90.894 64.307 83.317 75 75.072 83.69z" fill="#e827ec"/>
    <path d="M70.081 75.48c-9.429 8.464-19.348 13.251-31.673-.002-7.037-8.089-12.37-17.304-15.834-27.432 5.28-7.441 10.56-14.406 15.839-27.428l31.673.003c4.082 8.291 6.606 15.315 15.834 27.43-4.013 12.942-9.677 20.934-15.839 27.43z" fill="#a639b6"/>
  </g>
</svg>
